<svg viewBox="0 0 800 800" xmlns="http://www.w3.org/2000/svg"><path d="M718.4174180289212,185.62708097849531 L718.9318859386817,179.78977940265224 M26.180625421531715,576.4744010908017 L25.137883018199602,569.7964765339444 M718.4174180289212,185.62708097849531 L26.180625421531715,576.4744010908017 M718.9318859386817,179.78977940265224 L25.137883018199602,569.7964765339444 M774.2295293299078,210.98188403436112 L774.8621169818005,205.0761972772638 M774.2295293299078,210.98188403436112 L718.4174180289212,185.62708097849531 M774.8621169818005,205.0761972772638 L718.9318859386817,179.78977940265224 M81.41273261450391,620.2102205973478 L80.4829601044338,613.4666602435369 M26.180625421531715,576.4744010908017 L81.41273261450391,620.2102205973478 M25.137883018199602,569.7964765339444 L80.4829601044338,613.4666602435369 M81.41273261450391,620.2102205973478 L774.2295293299078,210.98188403436112 M666.3755411984848,244.1764970109836 L667.6634758784014,244.75138882278856 M667.6634758784014,244.75138882278856 L669.0346314689166,245.26894170741645 M669.0346314689166,245.26894170741645 L670.4781711255123,245.72497216962262 M670.4781711255123,245.72497216962262 L671.9826765020812,246.11576912253258 M671.9826765020812,246.11576912253258 L673.5362010134702,246.43815236123493 M673.5362010134702,246.43815236123493 L675.1263460135888,246.68951075472245 M675.1263460135888,246.68951075472245 L676.7404299470911,246.86779372323417 M676.7404299470911,246.86779372323417 L678.3655732594834,246.97153590466945 M678.3655732594834,246.97153590466945 L679.9887799013968,246.99989393016784 M679.9887799013968,246.99989393016784 L681.59705892954,246.95264115672876 M681.59705892954,246.95264115672876 L683.1775504355612,246.83016342736965 M683.1775504355612,246.83016342736965 L684.7176464194774,246.63345149989527 M684.7176464194774,246.63345149989527 L686.2050263065012,246.36412660227802 M686.2050263065012,246.36412660227802 L687.6278831745237,246.02436237947126 M687.6278831745237,246.02436237947126 L688.9748772059359,245.61694504865397 M688.9748772059359,245.61694504865397 L690.2353680148235,245.14516812506713 M690.2353680148235,245.14516812506713 L691.3993857389228,244.61287116460318 M691.3993857389228,244.61287116460318 L692.4578024988195,244.0243509514558 M692.4578024988195,244.0243509514558 L693.402346360296,243.384362074364 M693.402346360296,243.384362074364 L694.2256944636054,242.69805189282812 M694.2256944636054,242.69805189282812 L694.9214962661977,241.97093753565713 M694.9214962661977,241.97093753565713 L695.4844853423244,241.20882246236067 M695.4844853423244,241.20882246236067 L695.9104229238881,240.41779712461596 M695.9104229238881,240.41779712461596 L696.1962183606875,239.60413273873644 M696.1962183606875,239.60413273873644 L696.339867877577,238.77428222907452 M696.339867877577,238.77428222907452 L696.3405106508646,237.93479047418282 M696.3405106508646,237.93479047418282 L696.1984197806319,237.0922488009146 M696.1984197806319,237.0922488009146 L695.9149898059575,236.25324893336045 M695.9149898059575,236.25324893336045 L695.492679502044,235.4243460174028 M695.492679502044,235.4243460174028 L694.9350716003398,234.61196058918165 M694.9350716003398,234.61196058918165 L694.2467188555418,233.82239994785806 M694.2467188555418,233.82239994785806 L693.433220531223,233.06173993060548 M693.433220531223,233.06173993060548 L692.501104821054,232.3358201613728 M692.501104821054,232.3358201613728 L691.457752670053,231.6502147894849 M691.457752670053,231.6502147894849 L690.3114153723743,231.0101451950818 M690.3114153723743,231.0101451950818 L689.0710830418964,230.42048239215808 M689.0710830418964,230.42048239215808 L687.7464353136613,229.88570003318978 M687.7464353136613,229.88570003318978 L686.3477669027072,229.40984392740012 M686.3477669027072,229.40984392740012 L684.8858865108605,228.99651712867728 M684.8858865108605,228.99651712867728 L683.3721038086817,228.6488181985397 M683.3721038086817,228.6488181985397 L681.8180634364633,228.36936620178426 M681.8180634364633,228.36936620178426 L680.2356826691371,228.16027153349495 M680.2356826691371,228.16027153349495 L678.6371339025372,228.02308304174267 M678.6371339025372,228.02308304174267 L677.0346340343249,227.95884653486593 M677.0346340343249,227.95884653486593 L675.4404778144562,227.96802991914126 M675.4404778144562,227.96802991914126 L673.8668684357249,228.05056992876098 M673.8668684357249,228.05056992876098 L672.3258542074859,228.2058515522437 M672.3258542074859,228.2058515522437 L670.8292537980483,228.43271046988008 M670.8292537980483,228.43271046988008 L669.3885839706136,228.72943607137364 M669.3885839706136,228.72943607137364 L668.0149111972614,229.09381108377005 M668.0149111972614,229.09381108377005 L666.7188627684484,229.52308051965548 M666.7188627684484,229.52308051965548 L665.5104535318001,230.0140233905874 M665.5104535318001,230.0140233905874 L664.3990961111945,230.56292144590662 M664.3990961111945,230.56292144590662 L663.3934678099536,231.165621531988 M663.3934678099536,231.165621531988 L662.5014810596992,231.81754523280603 M662.5014810596992,231.81754523280603 L661.7301797059017,232.51373754334202 M661.7301797059017,232.51373754334202 L661.0857485679605,233.24886749335474 M661.0857485679605,233.24886749335474 L660.5733675074946,234.01731796289215 M660.5733675074946,234.01731796289215 L660.1972834074784,234.8131593584937 M660.1972834074784,234.8131593584937 L659.9606333755287,235.63027182473445 M659.9606333755287,235.63027182473445 L659.8655497545694,236.46230756204767 M659.8655497545694,236.46230756204767 L659.9130280957038,237.30280773176798 M659.9130280957038,237.30280773176798 L660.1029695898853,238.14521139319965 M660.1029695898853,238.14521139319965 L660.4341668121374,238.98291258673305 M660.4341668121374,238.98291258673305 L660.9042942048031,239.8093208008135 M660.9042942048031,239.8093208008135 L661.5098947207953,240.61792052007956 M661.5098947207953,240.61792052007956 L662.2464406358324,241.40230739818128 M662.2464406358324,241.40230739818128 L663.1083715938073,242.15622870623707 M663.1083715938073,242.15622870623707 L664.0890775726723,242.87367241525783 M664.0890775726723,242.87367241525783 L665.1809618460097,243.54890502889884 M665.1809618460097,243.54890502889884 L666.3755411984848,244.1764970109836 M593.3608346019064,286.3315575193197 L594.6570907597695,286.9436993170559 M594.6570907597695,286.9436993170559 L596.0425230139072,287.49480144136794 M596.0425230139072,287.49480144136794 L597.5061841675501,287.98040448585107 M597.5061841675501,287.98040448585107 L599.0364983169525,288.3965522674994 M599.0364983169525,288.3965522674994 L600.6213126536884,288.73985427073086 M600.6213126536884,288.73985427073086 L602.2479741276243,289.007526480383 M602.2479741276243,289.007526480383 L603.9035047572572,289.1973824460733 M603.9035047572572,289.1973824460733 L605.574688161744,289.3078596618746 M605.574688161744,289.3078596618746 L607.2481519242069,289.33805881171924 M607.2481519242069,289.33805881171924 L608.9104937384168,289.28773820898283 M608.9104937384168,289.28773820898283 L610.5484119682267,289.15730929465946 M610.5484119682267,289.15730929465946 L612.1488311715227,288.9478285523802 M612.1488311715227,288.9478285523802 L613.6989376510096,288.66102466520925 M613.6989376510096,288.66102466520925 L615.1864176355534,288.2992153059887 M615.1864176355534,288.2992153059887 L616.5994061212518,287.8653710760795 M616.5994061212518,287.8653710760795 L617.926732789912,287.3630032544201 M617.926732789912,287.3630032544201 L619.1578901616019,286.7962048863711 M619.1578901616019,286.7962048863711 L620.2832156459278,286.16955603000355 M620.2832156459278,286.16955603000355 L621.2939059617092,285.4881241788178 M621.2939059617092,285.4881241788178 L622.1821168814156,284.7573948198968 M622.1821168814156,284.7573948198968 L622.9409884272418,283.98324675177395 M622.9409884272418,283.98324675177395 L623.5647647832502,283.1718630653817 M623.5647647832502,283.1718630653817 L624.0487358018654,282.3297316823444 M624.0487358018654,282.3297316823444 L624.3893670243453,281.46353211543703 M624.3893670243453,281.46353211543703 L624.5842361477655,280.58013635356554 M624.5842361477655,280.58013635356554 L624.6320956120408,279.68651322062266 M624.6320956120408,279.68651322062266 L624.532865502842,278.78967987560924 M624.532865502842,278.78967987560924 L624.287622909962,277.89665276588545 M624.287622909962,277.89665276588545 L623.8985446430129,277.01440827398585 M623.8985446430129,277.01440827398585 L623.3689740203911,276.1497784146512 M623.3689740203911,276.1497784146512 L622.7032605471479,275.3094736531675 M622.7032605471479,275.3094736531675 L621.9068451911764,274.4999571764075 M621.9068451911764,274.4999571764075 L620.9861391117947,273.72743996396076 M620.9861391117947,273.72743996396076 L619.9484465280507,272.99784979115697 M619.9484465280507,272.99784979115697 L618.8019876465255,272.3167384949815 M618.8019876465255,272.3167384949815 L617.5557627596957,271.6892847076619 M617.5557627596957,271.6892847076619 L616.2195040141778,271.12024402835226 M616.2195040141778,271.12024402835226 L614.8036003728655,270.6139167703136 M614.8036003728655,270.6139167703136 L613.3189942651934,270.1741322707261 M613.3189942651934,270.1741322707261 L611.7771717874341,269.80418336931933 M611.7771717874341,269.80418336931933 L610.1899902560726,269.50685315780794 M610.1899902560726,269.50685315780794 L608.5696157930729,269.28438407333306 M608.5696157930729,269.28438407333306 L606.9285085248382,269.1384217507286 M606.9285085248382,269.1384217507286 L605.279202322479,269.070077357551 M605.279202322479,269.070077357551 L603.6343437603466,269.0798480008083 M603.6343437603466,269.0798480008083 L602.0065150574726,269.16766647243094 M602.0065150574726,269.16766647243094 L600.408170252671,269.332879356165 M600.408170252671,269.332879356165 L598.8515582762625,269.5742495863377 M598.8515582762625,269.5742495863377 L597.3486485425146,269.8899595938302 M597.3486485425146,269.8899595938302 L595.9109759121513,270.2776533768996 M595.9109759121513,270.2776533768996 L594.549654154885,270.73440334480034 M594.549654154885,270.73440334480034 L593.2751933448944,271.2567864812465 M593.2751933448944,271.2567864812465 L592.0975123257567,271.8408509245655 M592.0975123257567,271.8408509245655 L591.0257979594146,272.48218214878284 M591.0257979594146,272.48218214878284 L590.0684741274881,273.1759130428273 M590.0684741274881,273.1759130428273 L589.2330919452636,273.91677552166385 M589.2330919452636,273.91677552166385 L588.526339507365,274.69910100880054 M588.526339507365,274.69910100880054 L587.9538860838493,275.51691584277296 M587.9538860838493,275.51691584277296 L587.5204576866906,276.3639131030118 M587.5204576866906,276.3639131030118 L587.229647467565,277.23358253106625 M587.229647467565,277.23358253106625 L587.0840259241081,278.11917030722753 M587.0840259241081,278.11917030722753 L587.0849977070791,279.013803380922 M587.0849977070791,279.013803380922 L587.2328445506616,279.91049892151625 M587.2328445506616,279.91049892151625 L587.5267069590811,280.80222504458544 M587.5267069590811,280.80222504458544 L587.9645705857488,281.68196517729274 M587.9645705857488,281.68196517729274 L588.5432487104038,282.5427814833592 M588.5432487104038,282.5427814833592 L589.2584425968544,283.3778534382974 M589.2584425968544,283.3778534382974 L590.1047781493317,284.1805209857532 M590.1047781493317,284.1805209857532 L591.0757830008145,284.9443795026624 M591.0757830008145,284.9443795026624 L592.1639491162887,285.66332023103223 M592.1639491162887,285.66332023103223 L593.3608346019064,286.3315575193197 M515.537130418272,331.2630940790747 L516.8400236851046,331.91622946537524 M516.8400236851046,331.91622946537524 L518.2386634430218,332.5042542512601 M518.2386634430218,332.5042542512601 L519.7220175646617,333.02239558657396 M519.7220175646617,333.02239558657396 L521.2783326854797,333.466441062372 M521.2783326854797,333.466441062372 L522.8952365425492,333.8327752942753 M522.8952365425492,333.8327752942753 L524.5598591919841,334.11839798403827 M524.5598591919841,334.11839798403827 L526.2588902765415,334.32098683967024 M526.2588902765415,334.32098683967024 L527.9787516632309,334.4388768961548 M527.9787516632309,334.4388768961548 L529.7056725335435,334.47110713783087 M529.7056725335435,334.47110713783087 L531.4258284055038,334.4174099482509 M531.4258284055038,334.4174099482509 L533.1254365600391,334.27822966817916 M533.1254365600391,334.27822966817916 L534.7909106796519,334.0546999337679 M534.7909106796519,334.0546999337679 L536.4089363469323,333.7486492642337 M536.4089363469323,333.7486492642337 L537.9665943164891,333.36258680927466 M537.9665943164891,333.36258680927466 L539.4515041552754,332.8996538314475 M539.4515041552754,332.8996538314475 L540.8518852468737,332.3636203462908 M540.8518852468737,332.3636203462908 L542.1566575142631,331.7588495242251 M542.1566575142631,331.7588495242251 L543.3555553305155,331.0902429584114 M543.3555553305155,331.0902429584114 L544.4391982499171,330.3632083190102 M544.4391982499171,330.3632083190102 L545.3991582496312,329.5836082927759 M545.3991582496312,329.5836082927759 L546.2280347950361,328.7577061941625 M546.2280347950361,328.7577061941625 L546.9194963820237,327.89212177812624 M546.9194963820237,327.89212177812624 L547.468331014476,326.9937667529849 M547.468331014476,326.9937667529849 L547.8704916101033,326.06977937752333 M547.8704916101033,326.06977937752333 L548.12310135233,325.12748365429314 M548.12310135233,325.12748365429314 L548.2244760114515,324.1743149319288 M548.2244760114515,324.1743149319288 L548.1741191231365,323.2177680443854 M548.1741191231365,323.2177680443854 L547.9727450817584,322.2653265500864 M547.9727450817584,322.2653265500864 L547.6222376098674,321.3244116626309 M547.6222376098674,321.3244116626309 L547.1256060848636,320.40233982011625 M547.1256060848636,320.40233982011625 L546.4870155244464,319.50623251221987 M546.4870155244464,319.50623251221987 L545.7116923392853,318.6429922728047 M545.7116923392853,318.6429922728047 L544.8058780185225,317.81925168982906 M544.8058780185225,317.81925168982906 L543.7768219331144,317.0412995343487 M543.7768219331144,317.0412995343487 L542.6326605615777,316.3150687275654 M542.6326605615777,316.3150687275654 L541.3823950664355,315.64607103868445 M541.3823950664355,315.64607103868445 L540.035797087392,315.0393715222197 M540.035797087392,315.0393715222197 L538.6033331626641,314.49955431518583 M538.6033331626641,314.49955431518583 L537.0961062934364,314.03067888647706 M537.0961062934364,314.03067888647706 L535.525731599801,313.6362784230388 M535.525731599801,313.6362784230388 L533.904306621177,313.3193023292172 M533.904306621177,313.3193023292172 L532.2442780496106,313.0821242846299 M532.2442780496106,313.0821242846299 L530.5583510779447,312.92652777212965 M530.5583510779447,312.92652777212965 L528.859448052611,312.8536639411816 M528.859448052611,312.8536639411816 L527.1605563864788,312.8640800298074 M527.1605563864788,312.8640800298074 L525.4746615903623,312.9577045078618 M525.4746615903623,312.9577045078618 L523.81466729012,313.1338327895335 M523.81466729012,313.1338327895335 L522.1932843660957,313.391148027059 M522.1932843660957,313.391148027059 L520.6229542150376,313.7277244026966 M520.6229542150376,313.7277244026966 L519.11573407612,314.14104469017497 M519.11573407612,314.14104469017497 L517.683241762124,314.628005566364 M517.683241762124,314.628005566364 L516.336558138875,315.1849442273402 M516.336558138875,315.1849442273402 L515.0861309122035,315.8076660980251 M515.0861309122035,315.8076660980251 L513.9417129249356,316.49146527887245 M513.9417129249356,316.49146527887245 L512.9122818860953,317.2311623372087 M512.9122818860953,317.2311623372087 L512.0059638055756,318.021136373801 M512.0059638055756,318.021136373801 L511.22998711183624,318.85535721550684 M511.22998711183624,318.85535721550684 L510.59059585497727,319.72744134120114 M510.59059585497727,319.72744134120114 L510.0929932936438,320.6306993055045 M510.0929932936438,320.6306993055045 L509.74133814972237,321.5581598541074 M509.74133814972237,321.5581598541074 L509.53866045400827,322.5026412199484 M509.53866045400827,322.5026412199484 L509.48683406132193,323.4568104063608 M509.48683406132193,323.4568104063608 L509.5865800578664,324.41321605416505 M509.5865800578664,324.41321605416505 L509.83741977531986,325.3643669970506 M509.83741977531986,325.3643669970506 L510.2376966678077,326.3027779330348 M510.2376966678077,326.3027779330348 L510.7845460955562,327.2210416756696 M510.7845460955562,327.2210416756696 L511.4739630877783,328.1118657220162 M511.4739630877783,328.1118657220162 L512.3007528479741,328.96816698394537 M512.3007528479741,328.96816698394537 L513.2586258750686,329.7831015875803 M513.2586258750686,329.7831015875803 L514.3402157975834,330.5501335233811 M514.3402157975834,330.5501335233811 L515.537130418272,331.2630940790747 M432.4131443451024,379.25474981453397 L433.72059093962724,379.95313622093977 M433.72059093962724,379.95313622093977 L435.1310569249499,380.5819192199268 M435.1310569249499,380.5819192199268 L436.6334191387587,381.13599086332897 M436.6334191387587,381.13599086332897 L438.2157776612067,381.6108396288774 M438.2157776612067,381.6108396288774 L439.8655574351609,382.0025910102539 M439.8655574351609,382.0025910102539 L441.5696069739388,382.3080420108712 M441.5696069739388,382.3080420108712 L443.3143153245716,382.5246930691258 M443.3143153245716,382.5246930691258 L445.08571914483593,382.65076849773516 M445.08571914483593,382.65076849773516 L446.86963164528964,382.6852352638844 M446.86963164528964,382.6852352638844 L448.6517552210165,382.6278104873536 M448.6517552210165,382.6278104873536 L450.41780787422,382.4789647670376 M450.41780787422,382.4789647670376 L452.1536490499124,382.23991882204507 M452.1536490499124,382.23991882204507 L453.8453910173229,381.91263004540065 M453.8453910173229,381.91263004540065 L455.4795270197366,381.49977746887066 M455.4795270197366,381.49977746887066 L457.04304143969426,381.0047340318838 M457.04304143969426,381.0047340318838 L458.5235164169972,380.43153769692617 M458.5235164169972,380.43153769692617 L459.9092387246489,379.7848529565999 M459.9092387246489,379.7848529565999 L461.1892915757209,379.0699292646467 M461.1892915757209,379.0699292646467 L462.3536476708976,378.2925557669393 M462.3536476708976,378.2925557669393 L463.39324153581776,377.45900661235623 M463.39324153581776,377.45900661235623 L464.30004171815693,376.57598758643303 M464.30004171815693,376.57598758643303 L465.0671128386506,375.6505789493178 M465.0671128386506,375.6505789493178 L465.6886597582071,374.6901731012696 M465.6886597582071,374.6901731012696 L466.1600668206349,373.7024110950924 M466.1600668206349,373.7024110950924 L466.47793303423714,372.69512279832486 M466.47793303423714,372.69512279832486 L466.64007833804106,371.67625944222544 M466.64007833804106,371.67625944222544 L466.64555876591953,370.6538279531231 M466.64555876591953,370.6538279531231 L466.4946640706753,369.63583279765606 M466.4946640706753,369.63583279765606 L466.1888985721706,368.6302090859517 M466.1888985721706,368.6302090859517 L465.7309644680895,367.64476199732076 M465.7309644680895,367.64476199732076 L465.1247325279628,366.68710846256977 M465.1247325279628,366.68710846256977 L464.37519740188986,365.76462161868335 M464.37519740188986,365.76462161868335 L463.48843457700156,364.88437531631047 M463.48843457700156,364.88437531631047 L462.4715476702775,364.0530940168016 M462.4715476702775,364.0530940168016 L461.3326041018071,363.27710540218857 M461.3326041018071,363.27710540218857 L460.0805704765093,362.56229701168775 M460.0805704765093,362.56229701168775 L458.7252419389116,361.9140745554437 M458.7252419389116,361.9140745554437 L457.27716612750584,361.337325626057 M457.27716612750584,361.337325626057 L455.7475602462539,360.83638773292944 M455.7475602462539,360.83638773292944 L454.1482280354827,360.41502073516233 M454.1482280354827,360.41502073516233 L452.4914727694296,360.0763801329805 M452.4914727694296,360.0763801329805 L450.79000875401135,359.8229973836848 M450.79000875401135,359.8229973836848 L449.0568667451023,359.6567658150424 M449.0568667451023,359.6567658150424 L447.30530246130496,359.5789253459921 M447.30530246130496,359.5789253459921 L445.5487033918014,359.5900554331986 M445.5487033918014,359.5900554331986 L443.80049455086333,359.69007435316837 M443.80049455086333,359.69007435316837 L442.0740359369545,359.87823602259465 M442.0740359369545,359.87823602259465 L440.3825371689093,360.1531349392535 M440.3825371689093,360.1531349392535 L438.73896090867305,360.5127195941926 M438.73896090867305,360.5127195941926 L437.1559245250785,360.9542991620439 M437.1559245250785,360.9542991620439 L435.6456154202979,361.47456475596 M435.6456154202979,361.47456475596 L434.219700228311,362.0696111862701 M434.219700228311,362.0696111862701 L432.88923556778997,362.73495968899573 M432.88923556778997,362.73495968899573 L431.6645865688681,363.46558902068915 M431.6645865688681,363.46558902068915 L430.5553502922294,364.25597067840624 M430.5553502922294,364.25597067840624 L429.5702749050982,365.1001027673823 M429.5702749050982,365.1001027673823 L428.71719234491934,365.9915543728531 M428.71719234491934,365.9915543728531 L428.0029544916089,366.9235082813273 M428.0029544916089,366.9235082813273 L427.4333714121686,367.8888116315327 M427.4333714121686,367.8888116315327 L427.0131627180751,368.8800260942553 M427.0131627180751,368.8800260942553 L426.7459075549383,369.8894801084287 M426.7459075549383,369.8894801084287 L426.63401279084695,370.9093317651246 M426.63401279084695,370.9093317651246 L426.67868091940727,371.93162286384967 M426.67868091940727,371.93162286384967 L426.8798921629822,372.948342284949 M426.8798921629822,372.948342284949 L427.23639545784204,373.95149108831777 M427.23639545784204,373.95149108831777 L427.7457045860545,374.93314131557725 M427.7457045860545,374.93314131557725 L428.4041118890196,375.88550600842285 M428.4041118890196,375.88550600842285 L429.20670400589546,376.8009986360446 M429.20670400589546,376.8009986360446 L430.14739682628567,377.67230030801755 M430.14739682628567,377.67230030801755 L431.2189752606626,378.4924185501057 M431.2189752606626,378.4924185501057 L432.4131443451024,379.25474981453397 M343.42831386085084,430.63016564840973 L344.7377318375313,431.37867131355614 M344.7377318375313,431.37867131355614 L346.15823392475755,432.0526058963572 M346.15823392475755,432.0526058963572 L347.6786464864417,432.64647497801894 M347.6786464864417,432.64647497801894 L349.28690897118065,433.1554483521451 M349.28690897118065,433.1554483521451 L350.97024822374595,433.5753624428699 M350.97024822374595,433.5753624428699 L352.7152556847609,433.9027708425255 M352.7152556847609,433.9027708425255 L354.5079641988007,434.13500348973355 M354.5079641988007,434.13500348973355 L356.33403169528765,434.27014596260744 M356.33403169528765,434.27014596260744 L358.17881636610076,434.3070931607811 M358.17881636610076,434.3070931607811 L360.0275278056751,434.2455373526163 M360.0275278056751,434.2455373526163 L361.86532772134166,434.0859894879344 M361.86532772134166,434.0859894879344 L363.6774994011964,433.8297531550972 M363.6774994011964,433.8297531550972 L365.4495287465437,433.4789308207338 M365.4495287465437,433.4789308207338 L367.1672389728954,433.03640722929504 M367.1672389728954,433.03640722929504 L368.81695146313695,432.5057934405645 M368.81695146313695,432.5057934405645 L370.38555217383856,431.8914225568817 M370.38555217383856,431.8914225568817 L371.86060460961954,431.19830843586504 M371.86060460961954,431.19830843586504 L373.2304792293364,430.4320824330421 M373.2304792293364,430.4320824330421 L374.4844335570635,429.5989557792561 M374.4844335570635,429.5989557792561 L375.61269080558094,428.7056605042738 M375.61269080558094,428.7056605042738 L376.60652712806836,427.75938656230085 M376.60652712806836,427.75938656230085 L377.4583214992229,426.76773067876974 M377.4583214992229,426.76773067876974 L378.16161762510023,425.7386219873255 M378.16161762510023,425.7386219873255 L378.7111803968151,424.68024668791645 M378.7111803968151,424.68024668791645 L379.10300618267974,423.6010009578046 M379.10300618267974,423.6010009578046 L379.3343555204707,422.50940547234177 M379.3343555204707,422.50940547234177 L379.40375378561635,421.41404583823805 M379.40375378561635,421.41404583823805 L379.3110241266564,420.32349148333674 M379.3110241266564,420.32349148333674 L379.05724869618143,419.2462372004962 M379.05724869618143,419.2462372004962 L378.6447265015421,418.19065467672596 M378.6447265015421,418.19065467672596 L378.07701626611134,417.16488946201844 M378.07701626611134,417.16488946201844 L377.358837909103,416.1768337776023 M377.358837909103,416.1768337776023 L376.4960288908907,415.23406850515545 M376.4960288908907,415.23406850515545 L375.4955454715807,414.34377905959775 M375.4955454715807,414.34377905959775 L374.3653391269122,413.5127394852183 M374.3653391269122,413.5127394852183 L373.1143226652652,412.7472486399699 M373.1143226652652,412.7472486399699 L371.7522951352643,412.05308843747525 M371.7522951352643,412.05308843747525 L370.2898653988098,411.43548525922006 M370.2898653988098,411.43548525922006 L368.7383729008526,410.8990733953529 M368.7383729008526,410.8990733953529 L367.1097731976796,410.44788328033684 M367.1097731976796,410.44788328033684 L365.4166095521438,410.08527874983275 M365.4166095521438,410.08527874983275 L363.6718699060558,409.813966644496 M363.6718699060558,409.813966644496 L361.88889245078605,409.63598057212215 M361.88889245078605,409.63598057212215 L360.0813276066904,409.55263295213206 M360.0813276066904,409.55263295213206 L358.2629724812899,409.5645476905619 M358.2629724812899,409.5645476905619 L356.44770201109776,409.67164326239805 M356.44770201109776,409.67164326239805 L354.64938613177736,409.8731163575151 M354.64938613177736,409.8731163575151 L352.88176935675506,410.16746556719386 M352.88176935675506,410.16746556719386 L351.15838908604775,410.5524949659137 M351.15838908604775,410.5524949659137 L349.49245142398706,411.0253339368811 M349.49245142398706,411.0253339368811 L347.8967720461891,411.58244291196115 M347.8967720461891,411.58244291196115 L346.3836689989333,412.21964342044 M346.3836689989333,412.21964342044 L344.96485662793185,412.9321493398443 M344.96485662793185,412.9321493398443 L343.65137723098644,413.7145897995938 M343.65137723098644,413.7145897995938 L342.4535104403154,414.5610519067082 M342.4535104403154,414.5610519067082 L341.3806871598298,415.4651169147832 M341.3806871598298,415.4651169147832 L340.4414361550046,416.4198965437327 M340.4414361550046,416.4198965437327 L339.6432836157757,417.4180964863008 M339.6432836157757,417.4180964863008 L338.9926861819104,418.4520702294904 M338.9926861819104,418.4520702294904 L338.4950232363015,419.51384624715126 M338.4950232363015,419.51384624715126 L338.1544968759054,420.59520926648986 M338.1544968759054,420.59520926648986 L337.9740939786273,421.6877678713475 M337.9740939786273,421.6877678713475 L337.9555847115208,422.78299194727435 M337.9555847115208,422.78299194727435 L338.0994610816823,423.8723025355828 M338.0994610816823,423.8723025355828 L338.4049534581273,424.9471241363736 M338.4049534581273,424.9471241363736 L338.8699878707293,425.9989675531047 M338.8699878707293,425.9989675531047 L339.49125287666425,427.0194719659268 M339.49125287666425,427.0194719659268 L340.2641379888107,428.000511071483 M340.2641379888107,428.000511071483 L341.18280781718795,428.9342408532357 M341.18280781718795,428.9342408532357 L342.24026228500816,429.8131494635857 M342.24026228500816,429.8131494635857 L343.42831386085084,430.63016564840973 M247.94014044903543,485.76028827214714 L249.24832486284112,486.5645115855102 M249.24832486284112,486.5645115855102 L250.67660161349883,487.2886320707353 M250.67660161349883,487.2886320707353 L252.21370660133476,487.92676093503735 M252.21370660133476,487.92676093503735 L253.8474993186958,488.47367177927754 M253.8474993186958,488.47367177927754 L255.56500479327053,488.9248837681323 M255.56500479327053,488.9248837681323 L257.35249063924346,489.276716313663 M257.35249063924346,489.276716313663 L259.1956719156316,489.52627820461805 M259.1956719156316,489.52627820461805 L261.07980423453864,489.6715029814957 M261.07980423453864,489.6715029814957 L262.98976859124423,489.7112010394419 M262.98976859124423,489.7112010394419 L264.9102195025023,489.64505262446687 M264.9102195025023,489.64505262446687 L266.8257379738258,489.4736019985762 M266.8257379738258,489.4736019985762 L268.72097973688903,489.1982466731232 M268.72097973688903,489.1982466731232 L270.5807101363149,488.8212727469887 M270.5807101363149,488.8212727469887 L272.39010300492134,488.3457449688418 M272.39010300492134,488.3457449688418 L274.1346652636371,487.77559002574503 M274.1346652636371,487.77559002574503 L275.8005525794608,487.1154480991262 M275.8005525794608,487.1154480991262 L277.374522191372,486.3707258236726 M277.374522191372,486.3707258236726 L278.84416967242527,485.5474706373592 M278.84416967242527,485.5474706373592 L280.1979458336243,484.65237014834565 M280.1979458336243,484.65237014834565 L281.4252911336521,483.69265969502305 M281.4252911336521,483.69265969502305 L282.51667143865893,482.67608873627404 M282.51667143865893,482.67608873627404 L283.46374040463513,481.61080281913377 M283.46374040463513,481.61080281913377 L284.2592714293547,480.5053432569008 M284.2592714293547,480.5053432569008 L284.8973379001933,479.36849755878416 M284.8973379001933,479.36849755878416 L285.373238734995,478.2092998547457 M285.373238734995,478.2092998547457 L285.68359584234076,477.0369048035958 M285.68359584234076,477.0369048035958 L285.8263580902229,475.860523598438 M285.8263580902229,475.860523598438 L285.8008012825213,474.689359462569 M285.8008012825213,474.689359462569 L285.60747192298516,473.53255606605273 M285.60747192298516,473.53255606605273 L285.2482916476109,472.3990609989658 M285.2482916476109,472.3990609989658 L284.72636534211927,471.29765613130724 M284.72636534211927,471.29765613130724 L284.04611308057247,470.23679340591406 M284.04611308057247,470.23679340591406 L283.21313122723063,469.2245891728877 M283.21313122723063,469.2245891728877 L282.23411177992136,468.2687844618021 M282.23411177992136,468.2687844618021 L281.1168941641513,467.37662449198535 M281.1168941641513,467.37662449198535 L279.87030821861936,466.554863345715 M279.87030821861936,466.554863345715 L278.5041328804747,465.80969981597764 M278.5041328804747,465.80969981597764 L277.0290194834936,465.1467362929935 M277.0290194834936,465.1467362929935 L275.4563782364656,464.57095931136246 M275.4563782364656,464.57095931136246 L273.79838633935026,464.086654801298 M273.79838633935026,464.086654801298 L272.0677838417676,463.6974440575548 M272.0677838417676,463.6974440575548 L270.2778121870296,463.4062441003157 M270.2778121870296,463.4062441003157 L268.4422147216711,463.2151948692196 M268.4422147216711,463.2151948692196 L266.57496830386106,463.12574134237684 M266.57496830386106,463.12574134237684 L264.6903523931235,463.13852970706733 M264.6903523931235,463.13852970706733 L262.80273392808664,463.2534726368044 M262.80273392808664,463.2534726368044 L260.92650238140146,463.4697206125569 M260.92650238140146,463.4697206125569 L259.07598278818443,463.78566505918525 M259.07598278818443,463.78566505918525 L257.26535143135993,464.19894206521604 M257.26535143135993,464.19894206521604 L255.50844792302226,464.70648688582395 M255.50844792302226,464.70648688582395 L253.81880161916578,465.30448981374525 M253.81880161916578,465.30448981374525 L252.20940193162915,465.9884950289702 M252.20940193162915,465.9884950289702 L250.69272324456935,466.75335587315 M250.69272324456935,466.75335587315 L249.28054545582353,467.59332044752875 M249.28054545582353,467.59332044752875 L247.98391601755378,468.5020437069892 M247.98391601755378,468.5020437069892 L246.81300947268505,469.4726539310273 M246.81300947268505,469.4726539310273 L245.77713828746386,470.497752234487 M245.77713828746386,470.497752234487 L244.884546357435,471.569536495703 M244.884546357435,471.569536495703 L244.14250287874634,472.6797634448382 M244.14250287874634,472.6797634448382 L243.55704651429906,473.8199180553087 M243.55704651429906,473.8199180553087 L243.13312190383073,474.9811600785464 M243.13312190383073,474.9811600785464 L242.87437807539513,476.15448645632614 M242.87437807539513,476.15448645632614 L242.78321313532427,477.33074332676057 M242.78321313532427,477.33074332676057 L242.86073383762795,478.5007054553196 M242.86073383762795,478.5007054553196 L243.10671939836675,479.6551606698218 M243.10671939836675,479.6551606698218 L243.5195810999278,480.78499329545133 M243.5195810999278,480.78499329545133 L244.09641839477177,481.88123519233454 M244.09641839477177,481.88123519233454 L244.83304666244135,482.9351229889464 M244.83304666244135,482.9351229889464 L245.72394183288952,483.93822352886684 M245.72394183288952,483.93822352886684 L246.76229906074553,484.8824879034462 M246.76229906074553,484.8824879034462 L247.94014044903543,485.76028827214714 M145.2086513316193,545.0723411683385 L146.5116421795837,545.9387431390837 M146.5116421795837,545.9387431390837 L147.94479256705839,546.7188780360767 M147.94479256705839,546.7188780360767 L149.49680999350747,547.4063921371518 M149.49680999350747,547.4063921371518 L151.15544409460307,547.9956457286405 M151.15544409460307,547.9956457286405 L152.90752469441526,548.4818030696375 M152.90752469441526,548.4818030696375 L154.7390383476253,548.8608916371146 M154.7390383476253,548.8608916371146 L156.63534210266965,549.1297906942879 M156.63534210266965,549.1297906942879 L158.5812582046006,549.2862696317368 M158.5812582046006,549.2862696317368 L160.5611591412318,549.3290442733849 M160.5611591412318,549.3290442733849 L162.55912247224092,549.2577694282863 M162.55912247224092,549.2577694282863 L164.55909061954532,549.0730326302663 M164.55909061954532,549.0730326302663 L166.54502608973206,548.7763424922482 M166.54502608973206,548.7763424922482 L168.5009459067247,548.3701666670859 M168.5009459067247,548.3701666670859 L170.411239868127,547.8578132110592 M170.411239868127,547.8578132110592 L172.26058717408318,547.2435200823619 M172.26058717408318,547.2435200823619 L174.034294576055,546.5322949080232 M174.034294576055,546.5322949080232 L175.71824420875595,545.7299717083841 M175.71824420875595,545.7299717083841 L177.2991481086717,544.8430751585578 M177.2991481086717,544.8430751585578 L178.76456597816582,543.8788195248409 M178.76456597816582,543.8788195248409 L180.10305099796358,542.8450086902408 M180.10305099796358,542.8450086902408 L181.30418916885148,541.7499995672924 M181.30418916885148,541.7499995672924 L182.35877564535255,540.6025745943853 M182.35877564535255,540.6025745943853 L183.25874388424,539.411941060247 M183.25874388424,539.411941060247 L183.99736243528335,538.1875697153062 M183.99736243528335,538.1875697153062 L184.56915721453782,536.939194994763 M184.56915721453782,536.939194994763 L184.9700206399994,535.6766790389385 M184.9700206399994,535.6766790389385 L185.1972195107492,534.4099426646613 M185.1972195107492,534.4099426646613 L185.2493987467133,533.1488958546505 M185.2493987467133,533.1488958546505 L185.12652591880712,531.9033822258018 M185.12652591880712,531.9033822258018 L184.83000820711226,530.6830321102601 M184.83000820711226,530.6830321102601 L184.3624907007493,529.4972953862136 M184.3624907007493,529.4972953862136 L183.72800381591264,528.3552648877148 M183.72800381591264,528.3552648877148 L182.93181909261094,527.265670560743 M182.93181909261094,527.265670560743 L181.98036778752598,526.2368369823654 M181.98036778752598,526.2368369823654 L180.88130239548607,525.2765539843086 M180.88130239548607,525.2765539843086 L179.64333320271737,524.3920820324313 M179.64333320271737,524.3920820324313 L178.27618960485646,523.5900835324111 M178.27618960485646,523.5900835324111 L176.79054326005908,522.8765789385192 M176.79054326005908,522.8765789385192 L175.19789168464888,522.2569261657488 M175.19789168464888,522.2569261657488 L173.51057253397744,521.7357297122759 M173.51057253397744,521.7357297122759 L171.74154964190956,521.3168796711531 M171.74154964190956,521.3168796711531 L169.90435226023175,521.0035093329803 M169.90435226023175,521.0035093329803 L168.01308089552953,520.7979170558878 M168.01308089552953,520.7979170558878 L166.0821237949517,520.7016548038788 M166.0821237949517,520.7016548038788 L164.12623613196115,520.7154165250802 M164.12623613196115,520.7154165250802 L162.16031296618488,520.83910845044 M162.16031296618488,520.83910845044 L160.19932435764522,521.0718182245477 M160.19932435764522,521.0718182245477 L158.25822548284376,521.4118182131963 M158.25822548284376,521.4118182131963 L156.35186945362818,521.856569379764 M156.35186945362818,521.856569379764 L154.4948091801851,522.4027797579173 M154.4948091801851,522.4027797579173 L152.70132822596457,523.0463567307539 M152.70132822596457,523.0463567307539 L150.98519621702286,523.7825131376559 M150.98519621702286,523.7825131376559 L149.3596980561021,524.6057188310853 M149.3596980561021,524.6057188310853 L147.83744217773307,525.5097924632956 M147.83744217773307,525.5097924632956 L146.4303205009948,526.4879141504842 M146.4303205009948,526.4879141504842 L145.14935824106078,527.5326966579182 M145.14935824106078,527.5326966579182 L144.00472514980615,528.6361845150395 M144.00472514980615,528.6361845150395 L143.00551269932635,529.7899870733867 M143.00551269932635,529.7899870733867 L142.15983383719413,530.9852373772555 M142.15983383719413,530.9852373772555 L141.47454567621435,532.2127742365858 M141.47454567621435,532.2127742365858 L140.95539438773255,533.4630844288451 M140.95539438773255,533.4630844288451 L140.60679448648455,534.7264773692208 M140.60679448648455,534.7264773692208 L140.43187386059356,535.9930979119415 M140.43187386059356,535.9930979119415 L140.4324258390559,537.2530118085338 M140.4324258390559,537.2530118085338 L140.60886529488982,538.4962966280882 M140.60886529488982,538.4962966280882 L140.96018043789206,539.713131675565 M140.96018043789206,539.713131675565 L141.48398697768027,540.8938530878986 M141.48398697768027,540.8938530878986 L142.17655248389758,542.0290156619244 M142.17655248389758,542.0290156619244 L143.0327298588761,543.1095282171843 M143.0327298588761,543.1095282171843 L144.0460141167741,544.1267120976557 M144.0460141167741,544.1267120976557 L145.2086513316193,545.0723411683385 M80.4829601044338,613.4666602435369 L774.8621169818005,205.0761972772638 M666.8108030168767,238.18418393498558 L665.6136514405393,237.5581992077677 M665.6136514405393,237.5581992077677 L664.5193848797294,236.88469717058967 M664.5193848797294,236.88469717058967 L663.5365050147097,236.1690937153362 M663.5365050147097,236.1690937153362 L662.6726252714489,235.41710788425166 M662.6726252714489,235.41710788425166 L661.9343704079099,234.63473649780724 M661.9343704079099,234.63473649780724 L661.3273134274466,233.82821641017085 M661.3273134274466,233.82821641017085 L660.8559926324979,233.0039356483129 M660.8559926324979,233.0039356483129 L660.5238735081482,232.16839306199154 M660.5238735081482,232.16839306199154 L660.3332877973385,231.32816224008525 M660.3332877973385,231.32816224008525 L660.2854468853134,230.48983211376867 M660.2854468853134,230.48983211376867 L660.3804513367745,229.6599466454175 M660.3804513367745,229.6599466454175 L660.6173051823982,228.84494789480357 M660.6173051823982,228.84494789480357 L660.9938734211983,228.0511671086934 M660.9938734211983,228.0511671086934 L661.5070142889213,227.28470812368596 M661.5070142889213,227.28470812368596 L662.1524740702098,226.551484957747 M662.1524740702098,226.551484957747 L662.9250642182878,225.85709992359548 M662.9250642182878,225.85709992359548 L663.8185892549297,225.2068698935571 M663.8185892549297,225.2068698935571 L664.8259929685207,224.60573672722174 M664.8259929685207,224.60573672722174 L665.9393488404835,224.058266659853 M665.9393488404835,224.058266659853 L667.1499639493209,223.56860176613162 M667.1499639493209,223.56860176613162 L668.4484085750789,223.14045035510242 M668.4484085750789,223.14045035510242 L669.824649531351,222.7770247832569 M669.824649531351,222.7770247832569 L671.2680399283247,222.4810726434774 M671.2680399283247,222.4810726434774 L672.7674927380722,222.25480524659235 M672.7674927380722,222.25480524659235 L674.3114696597306,222.09992859911026 M674.3114696597306,222.09992859911026 L675.8881297664157,222.01760388397804 M675.8881297664157,222.01760388397804 L677.4854018915798,222.00844445458125 M677.4854018915798,222.00844445458125 L679.0910595127832,222.07251340566995 M679.0910595127832,222.07251340566995 L680.692784189139,222.2093440935093 M680.692784189139,222.2093440935093 L682.2783352659296,222.41789352620944 M682.2783352659296,222.41789352620944 L683.8355164655302,222.69661702749175 M683.8355164655302,222.69661702749175 L685.3523868796372,223.04340987699163 M685.3523868796372,223.04340987699163 L686.8172785190554,223.45566004315873 M686.8172785190554,223.45566004315873 L688.2188587665701,223.93027727245646 M688.2188587665701,223.93027727245646 L689.5462966798614,224.46366814985913 M689.5462966798614,224.46366814985913 L690.7892760480431,225.05179766530927 M690.7892760480431,225.05179766530927 L691.938096682396,225.6902040766742 M691.938096682396,225.6902040766742 L692.9837490120055,226.37402930158837 M692.9837490120055,226.37402930158837 L693.9179634971822,227.09806578020056 M693.9179634971822,227.09806578020056 L694.7333424206088,227.8567540681001 M694.7333424206088,227.8567540681001 L695.4233422951895,228.64426989485582 M695.4233422951895,228.64426989485582 L695.9823502144168,229.45455334119157 M695.9823502144168,229.45455334119157 L696.4058016781858,230.28131357048545 M696.4058016781858,230.28131357048545 L696.6901040173732,231.11814674211723 M696.6901040173732,231.11814674211723 L696.832790640435,231.95851468987337 M696.832790640435,231.95851468987337 L696.8324612524832,232.79584269792213 M696.8324612524832,232.79584269792213 L696.6888392056196,233.62355638058864 M696.6888392056196,233.62355638058864 L696.4027840467768,234.43512761626204 M696.4027840467768,234.43512761626204 L695.9763006010364,235.22411993949152 M695.9763006010364,235.22411993949152 L695.4124828376052,235.98427806931085 M695.4124828376052,235.98427806931085 L694.7155752511653,236.7095269752167 M694.7155752511653,236.7095269752167 L693.8908522185618,237.39407784035888 M693.8908522185618,237.39407784035888 L692.944674581963,238.0324274114338 M692.944674581963,238.0324274114338 L691.8843776683077,238.61944123389083 M691.8843776683077,238.61944123389083 L690.7182480146607,239.15037660559557 M690.7182480146607,239.15037660559557 L689.4554300801251,239.6209474554821 M689.4554300801251,239.6209474554821 L688.1059122535387,240.02732377988946 M688.1059122535387,240.02732377988946 L686.680355080603,240.36622023849048 M686.680355080603,240.36622023849048 L685.1901202054846,240.6348575203956 M685.1901202054846,240.6348575203956 L683.6470376074353,240.83106735794934 M683.6470376074353,240.83106735794934 L682.0634522035477,240.95323253207857 M682.0634522035477,240.95323253207857 L680.4519971814898,241.00036473148634 M680.4519971814898,241.00036473148634 L678.8255583824935,240.9720790658384 M678.8255583824935,240.9720790658384 L677.197153169021,240.86860161896578 M677.197153169021,240.86860161896578 L675.5798042252495,240.69077367711498 M675.5798042252495,240.69077367711498 L673.9864176945837,240.44005698004173 M673.9864176945837,240.44005698004173 L672.4297014800461,240.11849703448866 M672.4297014800461,240.11849703448866 L670.9220801381421,239.7286985042091 M670.9220801381421,239.7286985042091 L669.4755253775661,239.27383370271355 M669.4755253775661,239.27383370271355 L668.1014797030332,238.7576044893894 M668.1014797030332,238.7576044893894 L666.8108030168767,238.18418393498558 M593.6607460793932,280.23398105993215 L592.4612679498744,279.5673709627873 M592.4612679498744,279.5673709627873 L591.37072262261,278.850182381525 M591.37072262261,278.850182381525 L590.3975703635149,278.08818717475253 M590.3975703635149,278.08818717475253 L589.5493356233851,277.28747948511995 M589.5493356233851,277.28747948511995 L588.8325050247429,276.45444855325275 M588.8325050247429,276.45444855325275 L588.2524646356258,275.5957383746085 M588.2524646356258,275.5957383746085 L587.8135229243237,274.71815295808955 M587.8135229243237,274.71815295808955 L587.5188740382982,273.82861326897313 M587.5188740382982,273.82861326897313 L587.3705373365831,272.93411874368144 M587.3705373365831,272.93411874368144 L587.3693749575052,272.0416840179293 M587.3693749575052,272.0416840179293 L587.5151054767518,271.1582747192558 M587.5151054767518,271.1582747192558 L587.8063222680348,270.290746892187 M587.8063222680348,270.290746892187 L588.2404505058021,269.44583757474607 M588.2404505058021,269.44583757474607 L588.8138906429465,268.63004078044406 M588.8138906429465,268.63004078044406 L589.5219080079598,267.8496476303628 M589.5219080079598,267.8496476303628 L590.3588227796924,267.11061676183823 M590.3588227796924,267.11061676183823 L591.3179342863373,266.4186024435855 M591.3179342863373,266.4186024435855 L592.3916771135409,265.7788594164297 M592.3916771135409,265.7788594164297 L593.5716113442379,265.19624242395236 M593.5716113442379,265.19624242395236 L594.8485325571396,264.67515474117863 M594.8485325571396,264.67515474117863 L596.2125028836535,264.21953813215856 M596.2125028836535,264.21953813215856 L597.652992022616,263.83280684432583 M597.652992022616,263.83280684432583 L599.1588647480512,263.5178809557976 M599.1588647480512,263.5178809557976 L600.7185638525139,263.2771104101873 M600.7185638525139,263.2771104101873 L602.3200966491465,263.11230809840583 M602.3200966491465,263.11230809840583 L603.9511902944857,263.0247078984281 M603.9511902944857,263.0247078984281 L605.5993663254249,263.0149615413998 M605.5993663254249,263.0149615413998 L607.2520177209012,263.0831360615109 M607.2520177209012,263.0831360615109 L608.8964728390395,263.22873563493886 M608.8964728390395,263.22873563493886 L610.5201727992353,263.4506519562343 M610.5201727992353,263.4506519562343 L612.1106324430368,263.74724363003634 M612.1106324430368,263.74724363003634 L613.6556610033683,264.11627398529447 M613.6556610033683,264.11627398529447 L615.143376931099,264.55496707612315 M615.143376931099,264.55496707612315 L616.5622704279112,265.060038502836 M616.5622704279112,265.060038502836 L617.9013762217146,265.62766871875414 M617.9013762217146,265.62766871875414 L619.1502833931484,266.2535683779219 M619.1502833931484,266.2535683779219 L620.299238932281,266.9329939747205 M620.299238932281,266.9329939747205 L621.3392229343176,267.6607800047644 M621.3392229343176,267.6607800047644 L622.2619969435048,268.4313886579921 M622.2619969435048,268.4313886579921 L623.0602401347255,269.23890708020116 M623.0602401347255,269.23890708020116 L623.7275263728245,270.0771398672018 M623.7275263728245,270.0771398672018 L624.2584015214704,270.9396399757905 M624.2584015214704,270.9396399757905 L624.6485049777691,271.81971363203013 M624.6485049777691,271.81971363203013 L624.894484274914,272.7105457439671 M624.894484274914,272.7105457439671 L624.9941557444731,273.6051771347955 M624.9941557444731,273.6051771347955 L624.9464376417704,274.49660858671956 M624.9464376417704,274.49660858671956 L624.7514075801178,275.3778400971829 M624.7514075801178,275.3778400971829 L624.4103132303853,276.24191980704654 M624.4103132303853,276.24191980704654 L623.9255794681114,277.08199238544785 M623.9255794681114,277.08199238544785 L623.300745705574,277.89139444295836 M623.300745705574,277.89139444295836 L622.5405295733196,278.6636536566375 M622.5405295733196,278.6636536566375 L621.6506966809652,279.39260174255344 M621.6506966809652,279.39260174255344 L620.6381192432164,280.0723739297532 M620.6381192432164,280.0723739297532 L619.5106559559108,280.6974977742034 M619.5106559559108,280.6974977742034 L618.2771267604192,281.2629177934281 M618.2771267604192,281.2629177934281 L616.9472129145863,281.7640647522132 M616.9472129145863,281.7640647522132 L615.5314425405229,282.19685525351906 M615.5314425405229,282.19685525351906 L614.041008217757,282.55778627397666 M614.041008217757,282.55778627397666 L612.4877988741587,282.8438941858522 M612.4877988741587,282.8438941858522 L610.8841533771836,283.0528667451416 M610.8841533771836,283.0528667451416 L609.2429117633396,283.1829793159472 M609.2429117633396,283.1829793159472 L607.5771765688035,283.23317788421383 M607.5771765688035,283.23317788421383 L605.90027717625,283.2030519706052 M605.90027717625,283.2030519706052 L604.225644011846,283.09284269734457 M604.225644011846,283.09284269734457 L602.5666776951014,282.90344727824476 M602.5666776951014,282.90344727824476 L600.9366226110797,282.63642456240615 M600.9366226110797,282.63642456240615 L599.3484843464639,282.2939558785584 M599.3484843464639,282.2939558785584 L597.8149429535763,281.87881871197413 M597.8149429535763,281.87881871197413 L596.3481772650591,281.39439560917 M596.3481772650591,281.39439560917 L594.9597880497827,280.84463343327224 M594.9597880497827,280.84463343327224 L593.6607460793932,280.23398105993215 M515.6826031921132,325.05916952687403 L514.4830886434486,324.3478493465898 M514.4830886434486,324.3478493465898 L513.3991392256928,323.58258389031755 M513.3991392256928,323.58258389031755 L512.4391653015696,322.7695280135795 M512.4391653015696,322.7695280135795 L511.61054915157206,321.9152029833604 M511.61054915157206,321.9152029833604 L510.9195938272955,321.02643716941503 M510.9195938272955,321.02643716941503 L510.37150528836514,320.11029754140475 M510.37150528836514,320.11029754140475 L509.97029709695545,319.17405992879094 M509.97029709695545,319.17405992879094 L509.71884002922616,318.2251145012918 M509.71884002922616,318.2251145012918 L509.6187941900717,317.2709292806213 M509.6187941900717,317.2709292806213 L509.67063931112983,316.3189780542179 M509.67063931112983,316.3189780542179 L509.873652849004,315.37669480972284 M509.873652849004,315.37669480972284 L510.2259570875189,314.4513953646437 M510.2259570875189,314.4513953646437 L510.7245157441337,313.5502445805677 M510.7245157441337,313.5502445805677 L511.36516152915885,312.68019722505585 M511.36516152915885,312.68019722505585 L512.1426804892678,311.84792685084113 M512.1426804892678,311.84792685084113 L513.0508157749589,311.05980174752386 M513.0508157749589,311.05980174752386 L514.0823241803744,310.32183764062063 M514.0823241803744,310.32183764062063 L515.2290631255051,309.63964190949696 M515.2290631255051,309.63964190949696 L516.4820366362817,309.0183814837117 M516.4820366362817,309.0183814837117 L517.8314720675353,308.46275086532216 M517.8314720675353,308.46275086532216 L519.2669005341684,307.97693443968694 M519.2669005341684,307.97693443968694 L520.7772187334012,307.5645860896084 M520.7772187334012,307.5645860896084 L522.350785344348,307.228801562604 M522.350785344348,307.228801562604 L523.9755187342367,306.97209192790024 M523.9755187342367,306.97209192790024 L525.6389523240719,306.79637828606366 M525.6389523240719,306.79637828606366 L527.3283494793789,306.70297425578076 M527.3283494793789,306.70297425578076 L529.030780385643,306.69258269445 M529.030780385643,306.69258269445 L530.733233113893,306.76527495602187 M530.733233113893,306.76527495602187 L532.4226937479234,306.9205051451412 M532.4226937479234,306.9205051451412 L534.0862134703782,307.1571249368797 M534.0862134703782,307.1571249368797 L535.7110609401236,307.4733552174313 M535.7110609401236,307.4733552174313 L537.2847637094569,307.86682811513396 M537.2847637094569,307.86682811513396 L538.7951990474621,308.33460143014617 M538.7951990474621,308.33460143014617 L540.2307274667721,308.87315058543186 M540.2307274667721,308.87315058543186 L541.5802224794512,309.4784259807505 M541.5802224794512,309.4784259807505 L542.8331951909192,310.145854590124 M542.8331951909192,310.145854590124 L543.979852857754,310.87038359640997 M543.979852857754,310.87038359640997 L545.0111746273831,311.64651450025406 M545.0111746273831,311.64651450025406 L545.9190059480063,312.46832860924474 M545.9190059480063,312.46832860924474 L546.6960810553352,313.3295521740744 M546.6960810553352,313.3295521740744 L547.3361440121021,314.22356838106214 M547.3361440121021,314.22356838106214 L547.8339559454166,315.143491039495 M547.8339559454166,315.143491039495 L548.1853414838193,316.08221544342507 M548.1853414838193,316.08221544342507 L548.3872832266277,317.0324423155094 M548.3872832266277,317.0324423155094 L548.4378917323618,317.98676776460223 M548.4378917323618,317.98676776460223 L548.3364493146855,318.93772561485906 M548.3364493146855,318.93772561485906 L548.0834516933851,319.87783835582445 M548.0834516933851,319.87783835582445 L547.6805848887303,320.79968774108653 M547.6805848887303,320.79968774108653 L547.1307300855847,321.6959665333251 M547.1307300855847,321.6959665333251 L546.4379412995359,322.5595527366791 M546.4379412995359,322.5595527366791 L545.6074400405735,323.3835503181046 M545.6074400405735,323.3835503181046 L544.6455698390785,324.16135447007696 M544.6455698390785,324.16135447007696 L543.5597456854725,324.88671596148026 M543.5597456854725,324.88671596148026 L542.3584124166534,325.5537852366285 M542.3584124166534,325.5537852366285 L541.050969505538,326.1571666933067 M541.050969505538,326.1571666933067 L539.6477036854094,326.6919696403949 M539.6477036854094,326.6919696403949 L538.1597180699157,327.15384058368033 M538.1597180699157,327.15384058368033 L536.5988180005254,327.5390178460661 M536.5988180005254,327.5390178460661 L534.9774101024038,327.84436709662737 M534.9774101024038,327.84436709662737 L533.3084411344564,328.06738471375763 M533.3084411344564,328.06738471375763 L531.6052540310595,328.2062462006372 M531.6052540310595,328.2062462006372 L529.8814643476624,328.2598204119939 M529.8814643476624,328.2598204119939 L528.1508845764336,328.22766398353514 M528.1508845764336,328.22766398353514 L526.427369156647,328.1100439435505 M526.427369156647,328.1100439435505 L524.7247188172503,327.90791919640725 M524.7247188172503,327.90791919640725 L523.0565412356709,327.62295104485065 M523.0565412356709,327.62295104485065 L521.4361757585243,327.2574566682451 M521.4361757585243,327.2574566682451 L519.8765203787564,326.81442974593773 M519.8765203787564,326.81442974593773 L518.3899743204067,326.29747767081443 M518.3899743204067,326.29747767081443 L516.9883165472372,325.71080351697884 M516.9883165472372,325.71080351697884 L515.6826031921132,325.05916952687403 M432.38206291523136,372.94390079967286 L431.1853037712929,372.1832141635626 M431.1853037712929,372.1832141635626 L430.11140686531587,371.36486715800015 M430.11140686531587,371.36486715800015 L429.16868489745275,370.49544946865285 M429.16868489745275,370.49544946865285 L428.36436818789053,369.5819388219439 M428.36436818789053,369.5819388219439 L427.70455347586284,368.6316385953767 M427.70455347586284,368.6316385953767 L427.19416408198066,367.65211915609495 M427.19416408198066,367.65211915609495 L426.83691490280415,366.65115078290063 M426.83691490280415,366.65115078290063 L426.63529666429827,365.63664435944446 M426.63529666429827,365.63664435944446 L426.5905622070668,364.6165815023458 M426.5905622070668,364.6165815023458 L426.70273039240965,363.598955884096 M426.70273039240965,363.598955884096 L426.9705951668435,362.5917082761746 M426.9705951668435,362.5917082761746 L427.39174352723154,361.6026633177748 M427.39174352723154,361.6026633177748 L427.96258771521605,360.6394755831577 M427.96258771521605,360.6394755831577 L428.6783971237505,359.7095668433182 M428.6783971237505,359.7095668433182 L429.53334843845965,358.82007395467053 M429.53334843845965,358.82007395467053 L430.52057440464364,357.97779880150534 M430.52057440464364,357.97779880150534 L431.6322257313261,357.18915777004116 M431.6322257313261,357.18915777004116 L432.8595350674364,356.46013913593504 M432.8595350674364,356.46013913593504 L434.19288448945434,355.79625880563435 M434.19288448945434,355.79625880563435 L435.6218865007924,355.2025265389947 M435.6218865007924,355.2025265389947 L437.13546077415003,354.6834108223631 M437.13546077415003,354.6834108223631 L438.72191579204133,354.2428078570344 M438.72191579204133,354.2428078570344 L440.3690382735282,353.8840188944296 M440.3690382735282,353.8840188944296 L442.06418415483233,353.6097285374733 M442.06418415483233,353.6097285374733 L443.7943634253742,353.42198354273427 M443.7943634253742,353.42198354273427 L445.546338653084,353.32218615279726 M445.546338653084,353.32218615279726 L447.30672174498346,353.31108071926207 M447.30672174498346,353.31108071926207 L449.06205946882096,353.3887487757434 M449.06205946882096,353.3887487757434 L450.7989361883021,353.5546122108127 M450.7989361883021,353.5546122108127 L452.5040682853447,353.8074339819923 M452.5040682853447,353.8074339819923 L454.16439752780616,354.1453251487123 M454.16439752780616,354.1453251487123 L455.7671827305323,354.5657601104812 M455.7671827305323,354.5657601104812 L457.30009452012575,355.0655906528026 M457.30009452012575,355.0655906528026 L458.7513040103676,355.6410655762004 M458.7513040103676,355.6410655762004 L460.1095699784943,356.2878573326458 M460.1095699784943,356.2878573326458 L461.36432206378964,357.00108951740583 M461.36432206378964,357.00108951740583 L462.50574386997744,357.77536874894054 M462.50574386997744,357.77536874894054 L463.5248491747639,358.60482086174846 M463.5248491747639,358.60482086174846 L464.413552732261,359.48313248525545 M464.413552732261,359.48313248525545 L465.1647350402587,360.40359429688874 M465.1647350402587,360.40359429688874 L465.77230682000356,361.35914829391487 M465.77230682000356,361.35914829391487 L466.23126185559215,362.342437773809 M466.23126185559215,362.342437773809 L466.53772015267566,363.3458626943236 M466.53772015267566,363.3458626943236 L466.688972751632,364.36163508858135 M466.688972751632,364.36163508858135 L466.6835111246117,365.381837249087 M466.6835111246117,365.381837249087 L466.52104393015384,366.3984821662756 M466.52104393015384,366.3984821662756 L466.2025162367444,367.40358027881973 M466.2025162367444,367.40358027881973 L465.73011193360827,368.3891975039773 M465.73011193360827,368.3891975039773 L465.10723856246995,369.347520768465 M465.10723856246995,369.347520768465 L464.3385210646688,370.2709253207589 M464.3385210646688,370.2709253207589 L463.4297665469558,371.15203444937214 M463.4297665469558,371.15203444937214 L462.387924973803,371.98378284531134 M462.387924973803,371.98378284531134 L461.2210449203115,372.75947881594834 M461.2210449203115,372.75947881594834 L459.9382113972802,373.472861339123 M459.9382113972802,373.472861339123 L458.54947350278707,374.1181533307162 M458.54947350278707,374.1181533307162 L457.06577192782765,374.69011623259235 M457.06577192782765,374.69011623259235 L455.49884570086476,375.18409520060425 M455.49884570086476,375.18409520060425 L453.86114017040563,375.59606059981627 M453.86114017040563,375.59606059981627 L452.16569988052186,375.92264642907134 M452.16569988052186,375.92264642907134 L450.4260617002654,376.16117915612585 M450.4260617002654,376.16117915612585 L448.6561443942962,376.3097053995438 M448.6561443942962,376.3097053995438 L446.8701201663774,376.36700693938917 M446.8701201663774,376.36700693938917 L445.0823030058711,376.3326141396066 M445.0823030058711,376.3326141396066 L443.30702254713344,376.20680930164264 M443.30702254713344,376.20680930164264 L441.5584973406012,375.99062334390663 M441.5584973406012,375.99062334390663 L439.85072194580636,375.68582831553243 M439.85072194580636,375.68582831553243 L438.19733768034905,375.29491864944464 M438.19733768034905,375.29491864944464 L436.6115252845442,374.82109075715516 M436.6115252845442,374.82109075715516 L435.1058876819584,374.26821116002054 M435.1058876819584,374.26821116002054 L433.6923510397753,373.64078205563374 M433.6923510397753,373.64078205563374 L432.38206291523136,372.94390079967286 M343.1949511254499,424.21248641574954 L342.004341639199,423.39710736450127 M342.004341639199,423.39710736450127 L340.9446369227716,422.5199621367399 M340.9446369227716,422.5199621367399 L340.0240416338726,421.5881082583075 M340.0240416338726,421.5881082583075 L339.2495700714868,420.60904291187853 M339.2495700714868,420.60904291187853 L338.6270690285038,419.5905947134757 M338.6270690285038,419.5905947134757 L338.1611574684677,418.5408739160782 M338.1611574684677,418.5408739160782 L337.8551522493994,417.4682247230457 M337.8551522493994,417.4682247230457 L337.7111298790475,416.38111935291215 M337.7111298790475,416.38111935291215 L337.7298595345427,415.28811604462726 M337.7298595345427,415.28811604462726 L337.91084590409736,414.1977763773682 M337.91084590409736,414.1977763773682 L338.2523126677463,413.1186130735198 M338.2523126677463,413.1186130735198 L338.75126412956723,412.0590003303956 M338.75126412956723,412.0590003303956 L339.4034867475941,411.0271364577202 M339.4034867475941,411.0271364577202 L340.2035871892607,410.03097642120326 M340.2035871892607,410.03097642120326 L341.14509262049097,409.0781507537783 M341.14509262049097,409.0781507537783 L342.2204584527108,408.1759384326483 M342.2204584527108,408.1759384326483 L343.42113549038834,407.33121318362026 M343.42113549038834,407.33121318362026 L344.73767061218734,406.55038012173827 M344.73767061218734,406.55038012173827 L346.15976031032346,405.83933952384706 M346.15976031032346,405.83933952384706 L347.67633695023204,405.20345075182655 M347.67633695023204,405.20345075182655 L349.27565959100593,404.6474896323487 M349.27565959100593,404.6474896323487 L350.94538247776904,404.17562561711895 M350.94538247776904,404.17562561711895 L352.6726613387325,403.7913906118457 M352.6726613387325,403.7913906118457 L354.4442608096464,403.4976490031094 M354.4442608096464,403.4976490031094 L356.24661367645797,403.2965919417715 M356.24661367645797,403.2965919417715 L358.0659453114651,403.18971756737096 M358.0659453114651,403.18971756737096 L359.8883555192759,403.1778274400117 M359.8883555192759,403.1778274400117 L361.6999392007059,403.2610029061529 M361.6999392007059,403.2610029061529 L363.4868693356337,403.4386214192623 M363.4868693356337,403.4386214192623 L365.23546596370323,403.7093734199181 M365.23546596370323,403.7093734199181 L366.9323620716976,404.07122972271833 M366.9323620716976,404.07122972271833 L368.56454166747153,404.5214893644123 M368.56454166747153,404.5214893644123 L370.11943439552886,405.0567957974015 M370.11943439552886,405.0567957974015 L371.58505886581867,405.6731272925664 M371.58505886581867,405.6731272925664 L372.9500510997664,406.36585953804257 M372.9500510997664,406.36585953804257 L374.2037792459918,407.12977736294033 M374.2037792459918,407.12977736294033 L375.33642297810655,407.9591112038939 M375.33642297810655,407.9591112038939 L376.33905008807716,408.84757559566856 M376.33905008807716,408.84757559566856 L377.20369174705417,409.78841082559586 M377.20369174705417,409.78841082559586 L377.92337646748024,410.77444660131545 M377.92337646748024,410.77444660131545 L378.49225397713724,411.79811790594624 M378.49225397713724,411.79811790594624 L378.9055939684939,412.8515489387492 M378.9055939684939,412.8515489387492 L379.159829868489,413.92661099524497 M379.159829868489,413.92661099524497 L379.2526576035269,415.0149495935158 M379.2526576035269,415.0149495935158 L379.1829926606041,416.10808728854926 M379.1829926606041,416.10808728854926 L378.9510123568034,417.197472040723 M378.9510123568034,417.197472040723 L378.5581947208669,418.27453555247257 M378.5581947208669,418.27453555247257 L378.0072855063649,419.3307742167051 M378.0072855063649,419.3307742167051 L377.3022975454712,420.3578085688288 M377.3022975454712,420.3578085688288 L376.4484780015221,421.34746860231223 M376.4484780015221,421.34746860231223 L375.45229807291196,422.29184077447877 M375.45229807291196,422.29184077447877 L374.3213964243541,423.1833432109089 M374.3213964243541,423.1833432109089 L373.0645171447796,424.01479993533405 M373.0645171447796,424.01479993533405 L371.6914597582067,424.7794919380552 M371.6914597582067,424.7794919380552 L370.21299177255645,425.4712199432064 M370.21299177255645,425.4712199432064 L368.64076987049293,426.0843633861007 M368.64076987049293,426.0843633861007 L366.98725960588916,426.613917979503 M366.98725960588916,426.613917979503 L365.26560568467403,427.05555886267655 M365.26560568467403,427.05555886267655 L363.48951871159755,427.4056818228677 M363.48951871159755,427.4056818228677 L361.673208610361,427.6614075740219 M361.673208610361,427.6614075740219 L359.8312233725544,427.8206376196256 M359.8312233725544,427.8206376196256 L357.9783140194357,427.8820708290796 M357.9783140194357,427.8820708290796 L356.12935335483104,427.8451972160849 M356.12935335483104,427.8451972160849 L354.29916607689256,427.71032393190916 M354.29916607689256,427.71032393190916 L352.5024278095429,427.47855399377147 M352.5024278095429,427.47855399377147 L350.75351358654297,427.151798208978 M350.75351358654297,427.151798208978 L349.0664224816467,426.7327215916966 M349.0664224816467,426.7327215916966 L347.45459348239297,426.2247640172479 M347.45459348239297,426.2247640172479 L345.93082849438787,425.63208114807486 M345.93082849438787,425.63208114807486 L344.50721495696536,424.9594939809209 M344.50721495696536,424.9594939809209 L343.1949511254499,424.21248641574954 M247.47443653696976,479.236752802596 L246.2940982403235,478.360566677774 M246.2940982403235,478.360566677774 L245.253593808559,477.41804134580445 M245.253593808559,477.41804134580445 L244.360917207126,476.41679112864324 M244.360917207126,476.41679112864324 L243.62288631044515,475.3648505800521 M243.62288631044515,475.3648505800521 L243.04503495637528,474.2706377140012 M243.04503495637528,474.2706377140012 L242.63155417547466,473.142900054526 M242.63155417547466,473.142900054526 L242.38534776370645,471.9905894068949 M242.38534776370645,471.9905894068949 L242.3080045094568,470.8228047195814 M242.3080045094568,470.8228047195814 L242.39974200822942,469.64874113394416 M242.39974200822942,469.64874113394416 L242.65944721306087,468.47760670054697 M242.65944721306087,468.47760670054697 L243.0847127650368,467.3185381016557 M243.0847127650368,467.3185381016557 L243.6718775757775,466.18052137259417 M243.6718775757775,466.18052137259417 L244.4159820688574,465.0723799253901 M244.4159820688574,465.0723799253901 L245.3109703146901,464.00261245182344 M245.3109703146901,464.00261245182344 L246.3495532115909,462.9794463018779 M246.3495532115909,462.9794463018779 L247.52346498469575,462.01066842716534 M247.52346498469575,462.01066842716534 L248.8233691000543,461.10366323938007 M248.8233691000543,461.10366323938007 L250.23906528374656,460.2652889356309 M250.23906528374656,460.2652889356309 L251.75947866732173,459.50187800731754 M251.75947866732173,459.50187800731754 L253.37280059396434,458.81917091559615 M253.37280059396434,458.81917091559615 L255.06652666127243,458.22230404047275 M255.06652666127243,458.22230404047275 L256.827636606355,457.7157242646824 M256.827636606355,457.7157242646824 L258.64256930049595,457.30323363204616 M258.64256930049595,457.30323363204616 L260.49745297367946,456.98789070141623 M260.49745297367946,456.98789070141623 L262.3780786997979,456.7720546050505 M262.3780786997979,456.7720546050505 L264.27008873553336,456.6573306597308 M264.27008873553336,456.6573306597308 L266.1590609992606,456.64456666133606 M266.1590609992606,456.64456666133606 L268.03059621177306,456.73384975826315 M268.03059621177306,456.73384975826315 L269.87038295102064,456.9245350759954 M269.87038295102064,456.9245350759954 L271.6644132567563,457.215180561361 M271.6644132567563,457.215180561361 L273.39891332334787,457.60365060767407 M273.39891332334787,457.60365060767407 L275.06061250543735,458.08703408248374 M275.06061250543735,458.08703408248374 L276.6367427638053,458.6617169823496 M276.6367427638053,458.6617169823496 L278.11510023307596,459.3234219815767 M278.11510023307596,459.3234219815767 L279.48424982896773,460.0671725143189 M279.48424982896773,460.0671725143189 L280.73351708157526,460.8873773434163 M280.73351708157526,460.8873773434163 L281.85310191011695,461.77784995636233 M281.85310191011695,461.77784995636233 L282.8341554931253,462.7318495802903 M282.8341554931253,462.7318495802903 L283.66882166976126,463.7421451924462 M283.66882166976126,463.7421451924462 L284.35039433189326,464.8010108358055 M284.35039433189326,464.8010108358055 L284.87326549809757,465.9003458629422 M284.87326549809757,465.9003458629422 L285.23300617020584,467.0317145726197 M285.23300617020584,467.0317145726197 L285.42650557962645,468.1863518500963 M285.42650557962645,468.1863518500963 L285.45183893241114,469.35532705476027 M285.45183893241114,469.35532705476027 L285.3084597781554,470.5295137089146 M285.3084597781554,470.5295137089146 L284.99709533594205,471.6997257644716 M284.99709533594205,471.6997257644716 L284.51980288351467,472.8567690893886 M284.51980288351467,472.8567690893886 L283.8799697995162,473.9915058544449 M283.8799697995162,473.9915058544449 L283.08230960274295,475.0949184152428 M283.08230960274295,475.0949184152428 L282.1327642632471,476.1582351805294 M282.1327642632471,476.1582351805294 L281.0385788616927,477.1729302015887 M281.0385788616927,477.1729302015887 L279.8081209047295,478.13087248248985 M279.8081209047295,478.13087248248985 L278.4509485482173,479.02432632021765 M278.4509485482173,479.02432632021765 L276.97764781556003,479.84606914004746 M276.97764781556003,479.84606914004746 L275.39979674940275,480.589425065256 M275.39979674940275,480.589425065256 L273.72983066060766,481.2483572094948 M273.72983066060766,481.2483572094948 L271.98102517548045,481.81746833056604 M271.98102517548045,481.81746833056604 L270.1672588701864,482.2921262710392 M270.1672588701864,482.2921262710392 L268.30306054819135,482.6684111154331 M268.30306054819135,482.6684111154331 L266.4032927756823,482.9432633794865 M266.4032927756823,482.9432633794865 L264.4832274502154,483.11440088763993 M264.4832274502154,483.11440088763993 L262.55824616017594,483.18042852025667 M262.55824616017594,483.18042852025667 L260.6438051894812,483.14080294660425 M260.6438051894812,483.14080294660425 L258.7552868922354,482.9958433743942 M258.7552868922354,482.9958433743942 L256.90784632792065,482.74673737246957 M256.90784632792065,482.74673737246957 L255.116262737994,482.3955478561753 M255.116262737994,482.3955478561753 L253.39485449900235,481.94516107015005 M253.39485449900235,481.94516107015005 L251.7573857774581,481.3992512650135 M251.7573857774581,481.3992512650135 L250.2168611635962,480.7622915321113 M250.2168611635962,480.7622915321113 L248.7854484369647,480.039499201279 M248.7854484369647,480.039499201279 L247.47443653696976,479.236752802596 M144.47531753932267,538.4450738788298 L143.31028180536987,537.5010160543204 M143.31028180536987,537.5010160543204 L142.2949978913988,536.4855253021459 M142.2949978913988,536.4855253021459 L141.43723443013607,535.4068146789176 M141.43723443013607,535.4068146789176 L140.74350769158184,534.273548938268 M140.74350769158184,534.273548938268 L140.2189724114914,533.094804578729 M140.2189724114914,533.094804578729 L139.86736492975848,531.8800114196954 M139.86736492975848,531.8800114196954 L139.691069974092,530.6388174487672 M139.691069974092,530.6388174487672 L139.69109630508206,529.3810270851526 M139.69109630508206,529.3810270851526 L139.8670224856321,528.1165461675162 M139.8670224856321,528.1165461675162 L140.2170452855985,526.855292182711 M140.2170452855985,526.855292182711 L140.7380237654029,525.6071034992177 M140.7380237654029,525.6071034992177 L141.4255274006971,524.3816540582579 M141.4255274006971,524.3816540582579 L142.27379098436097,523.1884406025648 M142.27379098436097,523.1884406025648 L143.2759359848062,522.036608315838 M143.2759359848062,522.036608315838 L144.42382530328786,520.9350085382251 M144.42382530328786,520.9350085382251 L145.7083413560864,519.8920170230517 M145.7083413560864,519.8920170230517 L147.11928607532315,518.9155750169609 M147.11928607532315,518.9155750169609 L148.64560433042516,518.0130564527144 M148.64560433042516,518.0130564527144 L150.27537266214097,517.1912688563684 M150.27537266214097,517.1912688563684 L151.9959498595785,516.4563823084416 M151.9959498595785,516.4563823084416 L153.7940170988138,515.8139168249832 M153.7940170988138,515.8139168249832 L155.65577017203105,515.2686507515992 M155.65577017203105,515.2686507515992 L157.5668901602246,514.824669143509 M157.5668901602246,514.824669143509 L159.51278863034437,514.4852578602754 M159.51278863034437,514.4852578602754 L161.47857665508013,514.2529512194202 M161.47857665508013,514.2529512194202 L163.4492634167076,514.1294736369146 M163.4492634167076,514.1294736369146 L165.4098435630923,514.1157357659091 M165.4098435630923,514.1157357659091 L167.3453872717885,514.2118311993909 M167.3453872717885,514.2118311993909 L169.2411052419052,514.4170672863669 M169.2411052419052,514.4170672863669 L171.08257627231458,514.7298949514669 M171.08257627231458,514.7298949514669 L172.85566780633002,515.1480201159287 M172.85566780633002,515.1480201159287 L174.5468201320373,515.6683153014814 M174.5468201320373,515.6683153014814 L176.14304047292472,516.2868976105273 M176.14304047292472,516.2868976105273 L177.6319638555202,516.999171032817 M177.6319638555202,516.999171032817 L179.00206758300084,517.7997874811131 M179.00206758300084,517.7997874811131 L180.24265687319124,518.6827374898734 M180.24265687319124,518.6827374898734 L181.3439815303119,519.6413707444935 M181.3439815303119,519.6413707444935 L182.29731296152332,520.6684398731163 M182.29731296152332,520.6684398731163 L183.0949829334977,521.7561689992547 M183.0949829334977,521.7561689992547 L183.73054742975228,522.8962483483401 M183.73054742975228,522.8962483483401 L184.19872495105128,524.0799633810441 M184.19872495105128,524.0799633810441 L184.49547812800176,525.2982371824822 M184.49547812800176,525.2982371824822 L184.618158300676,526.541636279197 M184.618158300676,526.541636279197 L184.56535771003107,527.800546915608 M184.56535771003107,527.800546915608 L184.33711173491676,529.0651422694439 M184.33711173491676,529.0651422694439 L183.9347816324526,530.325529116062 M183.9347816324526,530.325529116062 L183.36111015891606,531.5718032653562 M183.36111015891606,531.5718032653562 L182.62021783171437,532.7941189583197 M182.62021783171437,532.7941189583197 L181.7175950400967,533.9827577868482 M181.7175950400967,533.9827577868482 L180.6599926237164,535.1282644570185 M180.6599926237164,535.1282644570185 L179.45549981623614,536.221446581954 M179.45549981623614,536.221446581954 L178.11334693560508,537.2535358196104 M178.11334693560508,537.2535358196104 L176.64397642396594,538.2161885690073 M176.64397642396594,538.2161885690073 L175.05886604434667,539.1016132853516 M175.05886604434667,539.1016132853516 L173.37048943112848,539.9026070317108 M173.37048943112848,539.9026070317108 L171.59216987746052,540.6126553134025 M171.59216987746052,540.6126553134025 L169.7380625157395,541.2259331651888 M169.7380625157395,541.2259331651888 L167.8228991044785,541.7374406895124 M167.8228991044785,541.7374406895124 L165.86204032186993,542.1429464480002 M165.86204032186993,542.1429464480002 L163.8711366952898,542.4391474494965 M163.8711366952898,542.4391474494965 L161.86621217788957,542.62357981532 M161.86621217788957,542.62357981532 L159.86334502758052,542.6947372321977 M159.86334502758052,542.6947372321977 L157.87863326556692,542.652033061696 M157.87863326556692,542.652033061696 L155.92803902903148,542.4958119696748 M155.92803902903148,542.4958119696748 L154.02722834754076,542.2273561745567 M154.02722834754076,542.2273561745567 L152.19141589418484,541.8488928767238 M152.19141589418484,541.8488928767238 L150.43527972122104,541.3635380343155 M150.43527972122104,541.3635380343155 L148.77286631245622,540.7752580703407 M148.77286631245622,540.7752580703407 L147.21737626860443,540.0888812667478 M147.21737626860443,540.0888812667478 L145.7810875858666,539.3100385953956 M145.7810875858666,539.3100385953956 L144.47531753932267,538.4450738788298 M666.3755411984848,244.1764970109836 L666.8108030168767,238.18418393498558 M593.3608346019064,286.3315575193197 L593.6607460793932,280.23398105993215 M515.537130418272,331.2630940790747 L515.6826031921132,325.05916952687403 M432.4131443451024,379.25474981453397 L432.38206291523136,372.94390079967286 M343.42831386085084,430.63016564840973 L343.1949511254499,424.21248641574954 M247.94014044903543,485.76028827214714 L247.47443653696976,479.236752802596 M145.2086513316193,545.0723411683385 L144.47531753932267,538.4450738788298" stroke="black"  stroke-width="4"  fill="red"/></svg>